<svg width="60" height="40" viewBox="0 0 60 40" fill="none" xmlns="http://www.w3.org/2000/svg">
  <rect width="60" height="40" rx="4" fill="#1A1F71"/>
  <path d="M25.164 26H21.712L19.16 16.72C19.044 16.302 18.836 16.006 18.474 15.844C17.75 15.502 16.95 15.234 16.072 15.118V14.776H21.096C21.788 14.776 22.366 15.31 22.48 15.958L23.79 22.698L27.052 14.776H30.418L25.164 26ZM32.046 26H28.756L31.392 14.776H34.682L32.046 26ZM39.668 18.4C39.782 17.752 40.36 17.372 41.014 17.372C42.016 17.296 43.096 17.486 43.98 17.942L44.558 15.04C43.674 14.66 42.714 14.47 41.752 14.47C38.576 14.47 36.324 16.15 36.324 18.514C36.324 20.272 37.866 21.202 38.99 21.772C40.19 22.342 40.614 22.722 40.614 23.216C40.5 23.978 39.668 24.282 38.882 24.282C37.79 24.282 36.7 23.978 35.758 23.446L35.18 26.348C36.272 26.88 37.516 27.146 38.76 27.146C42.21 27.222 44.386 25.542 44.386 23.026C44.386 19.744 39.668 19.554 39.668 18.4Z" fill="white"/>
</svg>
